<svg id="COF_logo" xmlns="http://www.w3.org/2000/svg" viewBox="0 0 251.04 99.61">
    <g style="fill: #005581; stroke-width: 0px;">
        <path d="M127.14,35.78c3.71-3.99,11.19-4.76,15.2-8.48,2.05-1.89,4.12-2.99,6.54-4.62.41-.28,3.48-2.77,3.65-2.79,4.51-.58,11.7,8.63,16.74,10.1,5.58,1.63,7.32,3.25,11.56,7.02-8.07-1.76-19.21-.09-27.79-.16-7.36-.07-17.18-1.89-24.53-.39l-1.37-.68Z"/>
        <path d="M65.7,37.27c4.16-4.66,10.25-7.42,14.75-11.76,2.3-2.21,4.62-3.49,7.33-5.4.46-.32,3.9-3.22,4.09-3.25,5.06-.67,13.12,10.07,18.77,11.79,6.25,1.91,8.21,3.8,12.96,8.19-9.04-2.05-21.54-.1-31.16-.19-8.25-.08-18.51-.86-26.74.89v-.28Z"/>
        <path d="M35.93,49.66v11.35h-2.12c-.99-7.24-2.62-8.87-10.83-8.87h-7c-2.33,0-2.62.21-2.62,2.56v18.16h9.9c6.02,0,6.3-1.7,6.93-6.24h2.12v15.18h-2.12c-.64-4.54-.92-6.24-6.93-6.24h-9.9v16.6c0,3.97.21,4.12,7.5,4.54v2.06H0v-2.06c6.22-.43,6.37-.57,6.37-4.54v-35.9c0-3.97-.14-4.11-6.37-4.54v-2.06h35.93Z"/>
        <path d="M48.52,68.82c4.67-4.11,6.79-5.68,9.34-5.68,2.76,0,3.75,1.91,3.75,3.48,0,2.2-1.56,3.97-3.25,3.97-.35,0-.92-.07-1.42-.36-2.05-1.13-3.25-1.56-4.39-1.56-1.62,0-4.03,1.85-4.03,7.31v16.6c0,3.62.43,3.76,6.72,4.11v2.06h-18.68v-2.06c4.95-.35,5.31-.5,5.31-4.11v-22.35c0-2.56-.42-2.91-2.26-3.19l-2.69-.36v-1.78l10.75-1.77.85,5.68Z"/>
        <path d="M240.78,66.83v22c0,5.39,2.26,7.09,4.67,7.09,1.77,0,3.33-.21,5.03-.92l.56,1.49c-2.05,1.28-5.44,3.12-9.05,3.12-2.48,0-7.85-.85-7.85-8.09v-24.69h-5.09v-2.84h5.38l4.31-8.94h2.05v8.94h9.13v2.84h-9.13Z"/>
        <path d="M68.4,80.1c-.14,7.38,1.63,15.89,10.4,15.89,5.59,0,8.27-3.41,10.26-7.52l2.12,1.13c-1.91,5.61-5.94,9.94-13.79,10.01-11.53.14-16.34-6.74-16.34-17.95s5.24-18.52,16.27-18.52c12.94,0,14.29,10.07,14.29,14.26,0,2.34-1.34,2.7-2.83,2.7h-20.37ZM81.84,77.4c1.98,0,2.41-.93,2.41-2.27,0-2.76-.78-9.51-7.36-9.51-7.36,0-8.42,8.87-8.42,11.78h13.37Z"/>
        <path d="M103.27,63.14l.64,5.39c2.48-1.85,6.93-5.39,12.38-5.39,4.95,0,7.64,2.13,9.34,5.46,2.47-1.56,6.65-5.46,12.45-5.46,6.72,0,10.54,4.12,10.54,11.28v18.17c0,3.62.28,3.75,5.31,4.11v2.06h-17.26v-2.06c5.09-.36,5.3-.5,5.3-4.11v-16.75c0-6.17-2.69-9.01-7.15-8.87-3.96,0-7,2.27-8.06,5.11-.42,1.13-.5,2.12-.5,3.9v16.6c0,3.62.28,3.75,5.31,4.11v2.06h-17.26v-2.06c5.09-.36,5.3-.5,5.3-4.11v-16.75c0-4.4-.7-8.87-6.79-8.87-3.89,0-7.01,2.41-8.35,5.25-.5.99-.57,1.99-.57,3.76v16.6c0,3.62.28,3.75,5.31,4.11v2.06h-17.26v-2.06c5.1-.36,5.31-.5,5.31-4.11v-22.35c0-2.55-.42-2.91-2.27-3.19l-2.69-.36v-1.77l10.96-1.77Z"/>
        <path d="M188.08,81.38c0,11.5-5.52,18.24-16.98,18.24s-16.9-6.74-16.9-18.24,5.58-18.24,16.9-18.24,16.98,6.74,16.98,18.24M171.11,97.13c6.58,0,9.62-5.96,9.62-15.75s-3.04-15.75-9.62-15.75-9.55,5.96-9.55,15.75,3.11,15.75,9.55,15.75"/>
        <path d="M224.72,92.59c0,3.62.29,3.76,5.3,4.11v2.06h-17.26v-2.06c5.09-.35,5.3-.49,5.3-4.11v-16.75c0-6.17-2.62-8.87-7.43-8.87-3.75,0-6.93,2.34-8.42,5.11-.56,1.14-.71,2.13-.71,3.9v16.6c0,3.62.28,3.76,5.3,4.11v2.06h-17.26v-2.06c5.09-.35,5.31-.49,5.31-4.11v-22.35c0-2.55-.42-2.91-2.27-3.19l-2.69-.35v-1.77l10.54-1.77.99,5.39c4.38-2.84,7.64-5.39,12.87-5.39,6.51,0,10.4,4.12,10.4,11.28v18.17Z"/>
    </g>
    <g style="fill: #006225; stroke-width: 0px;">
        <path d="M112.55,27.47c5.75,1.76,8.09,3.53,11.87,7.01.54,0,1.09,0,1.62,0,4.08-4.27,11.87-5.2,16.1-9.31,1.94-1.89,3.9-3.08,6.12-4.58-2.31-3.37-4.9-6.97-7.25-8.07-6.19-2.9-13.07-13.48-15.84-12.44-1.66.62-6.41,6.2-10.8,8.08-2.08,1.72-7.56,7.32-12.2,11.9,3.62,3.05,7.32,6.48,10.37,7.42"/>
        <path d="M77.19,48.02h-.43c-.27-1.7-1.29-2.31-2.76-2.31-2.67-.01-3.61,2.36-3.61,4.73,0,1.74.62,4.67,3.58,4.67,1.88,0,2.62-1.1,3.02-2.6h.43l-.2,2.41c-.69.37-2.01.69-3.16.69-1.61,0-3.02-.33-3.91-1.23-.86-.87-1.36-2.22-1.36-3.91s.49-2.87,1.31-3.79c.86-.96,2.28-1.48,4.05-1.48,1.31,0,2.4.26,3.05.56v2.25Z"/>
        <path d="M91.49,54.06c0,.81.04.84,1.29.92v.42h-4.01v-.42c1.27-.08,1.29-.11,1.29-.92v-7.3c0-.81-.03-.83-1.29-.92v-.42h4.01v.42c-1.25.09-1.29.12-1.29.92v7.3Z"/>
        <path d="M108.81,54.06c0,.81.04.84,1.58.92v.42h-4.59v-.42c1.54-.08,1.58-.11,1.58-.92v-8.13h-.85c-1.68,0-1.99.32-2.16,1.89h-.43v-2.39h8.3v2.39h-.43c-.17-1.57-.48-1.89-2.16-1.89h-.85v8.13Z"/>
        <path d="M125.24,55.4v-.42c1.48-.09,1.52-.13,1.52-.92v-2.15c0-.29-.06-.53-.22-.83-.71-1.43-1.55-3.03-2.36-4.52-.32-.61-.52-.69-1.28-.72v-.42h3.73v.42l-.85.09c-.22.03-.28.17-.16.43.63,1.38,1.38,2.84,2.21,4.35h.03c.76-1.5,1.74-3.47,2.1-4.34.12-.27.08-.43-.17-.46l-.78-.07v-.42h3.15v.42c-.96.04-1.05.16-1.54.95-.44.72-1.53,2.74-2.26,4.21-.15.29-.19.51-.19.85v2.21c0,.79.04.84,1.53.92v.42h-4.47Z"/>
        <path d="M156.13,46.61c.79.87,1.22,2.18,1.22,3.81s-.43,2.94-1.22,3.81c-.81.91-1.97,1.4-3.56,1.4s-2.76-.49-3.57-1.4c-.77-.87-1.22-2.19-1.22-3.81s.45-2.94,1.22-3.81c.81-.91,1.99-1.4,3.57-1.4s2.76.49,3.56,1.4M149.39,50.41c.03,2.12.61,4.7,3.17,4.7s3.15-2.58,3.18-4.7c-.03-2.12-.62-4.7-3.18-4.7s-3.15,2.58-3.17,4.7"/>
        <path d="M176.2,45.43v2.31h-.43c-.2-1.47-.53-1.8-2.2-1.8h-1.43c-.47,0-.53.04-.53.52v3.69h2.01c1.22,0,1.28-.34,1.41-1.26h.43v3.09h-.43c-.13-.92-.19-1.27-1.41-1.27h-2.01v3.37c0,.81.04.84,1.52.92v.42h-4.24v-.42c1.26-.08,1.29-.11,1.29-.92v-7.3c0-.81-.03-.84-1.29-.92v-.42h7.3Z"/>
        <path d="M67.29,39.49c29.43,0,58.78-2.67,88.27-.86,5.02.31,10.09.38,15.15.38,2.01,0,9.42-1.88,9.58,1.38-5.85.46-11.45.56-17.38.07-7.92-.66-15.91.53-23.88,0-7.59-.5-15.23.42-22.81-.11-7.9-.55-15.58,1.69-23.61,1.08-5.04-.38-10.4-.21-15.31-.48-1.88-.11-11.15,2.74-10.01-1.46"/>
    </g>
</svg>