<?xml version="1.0" encoding="UTF-8"?>
<svg xmlns="http://www.w3.org/2000/svg" version="1.1" viewBox="0 0 212.78 236">
  <defs>
    <style>
      .cls-1 {
        fill: none;
        stroke: #231f20;
        stroke-miterlimit: 10;
        stroke-width: .25px;
      }

      .cls-2 {
        display: none;
      }

      .cls-3 {
        fill: #368e16;
        stroke-width: 0px;
      }
    </style>
  </defs>
  <g id="basic_shape" data-name="basic shape" class="cls-2">
    <path class="cls-1" d="M114,44.42l14.05,43.25c1.07,3.3,4.14,5.53,7.61,5.53h45.48c7.75,0,10.97,9.92,4.7,14.47l-36.79,26.73c-2.8,2.04-3.98,5.65-2.91,8.94l14.05,43.25c2.39,7.37-6.04,13.5-12.31,8.94l-36.79-26.73c-2.8-2.04-6.6-2.04-9.4,0l-36.79,26.73c-6.27,4.56-14.71-1.57-12.31-8.94l14.05-43.25c1.07-3.3-.1-6.91-2.91-8.94l-36.79-26.73c-6.27-4.56-3.05-14.47,4.7-14.47h45.48c3.47,0,6.54-2.23,7.61-5.53l14.05-43.25c2.39-7.37,12.82-7.37,15.22,0Z"/>
  </g>
  <g id="Layer_2" data-name="Layer 2">
    <g>
      <path class="cls-3" d="M95.11,149.08c1.72-4.08,3.69-7.97,5.88-11.66-7.56-10.98-17.63-19.88-29.38-24.66C37.99,99.06,4.37,85.37,4.37,85.37c-13.69,33.63,6.24,80.95,39.86,94.64,16.27,6.63,32.53,13.25,44.99,18.32-3.01-15.5-1.03-32.83,5.89-49.25Z"/>
      <path class="cls-3" d="M75.04,104.35c11.95,4.87,22.71,13.53,31.35,25.1,8.28-11.09,18.96-20.06,31.34-25.1l12.13-4.94c8.69-31.75-5.78-61.71-43.47-99.41-37.69,37.69-52.16,67.66-43.47,99.41l12.13,4.94Z"/>
      <path class="cls-3" d="M101.29,207.39s33.63-13.69,67.25-27.39c33.63-13.69,53.56-61.01,39.86-94.64,0,0-33.63,13.69-67.25,27.39-33.63,13.69-53.56,61.01-39.86,94.64Z"/>
      <path class="cls-3" d="M136.11,203.01l-39.8,16.21-3.42-8.41c-.19-.47-.35-.94-.53-1.41l-15.69-6.39-2.95,3.94c-8.98,11.97-.44,29.05,14.52,29.05h36.31c14.96,0,23.5-17.08,14.52-29.05l-2.95-3.94Z"/>
    </g>
  </g>
</svg>